<?xml version="1.0" encoding="UTF-8" standalone="no"?>
<!DOCTYPE svg PUBLIC "-//W3C//DTD SVG 1.1//EN" "http://www.w3.org/Graphics/SVG/1.1/DTD/svg11.dtd">
<!-- Generated by Microsoft Visio, SVG Export Keyboard Overlay Source.svg Page-1 -->
<svg xmlns="http://www.w3.org/2000/svg" xmlns:xlink="http://www.w3.org/1999/xlink" xmlns:ev="http://www.w3.org/2001/xml-events"
		xmlns:v="http://schemas.microsoft.com/visio/2003/SVGExtensions/" width="400px" height="300px"
		viewBox="0 0 616.354 463.884" xml:space="preserve" color-interpolation-filters="sRGB" class="st3">
	<v:documentProperties v:langID="1033" v:metric="true" v:viewMarkup="false">
		<v:userDefs>
			<v:ud v:nameU="msvNoAutoConnect" v:val="VT0(1):26"/>
		</v:userDefs>
	</v:documentProperties>

	<style type="text/css">
	<![CDATA[
		.st1 {fill:#ffffff;stroke:#000000;stroke-linecap:round;stroke-linejoin:round;stroke-width:0.75}
		.st2 {fill:#ffffff;stroke:#3f3f3f;stroke-linecap:round;stroke-linejoin:round;stroke-width:0.75}
		.st3 {fill:none;fill-rule:evenodd;font-size:12px;overflow:visible;stroke-linecap:square;stroke-miterlimit:3}
	]]>
	</style>

	<g v:mID="0" v:index="1" v:groupContext="foregroundPage">
		<title>Page-1</title>
		<v:pageProperties v:drawingScale="0.0393701" v:pageScale="0.0393701" v:drawingUnits="24" v:shadowOffsetX="8.50394"
				v:shadowOffsetY="-8.50394"/>
		<g id="shape92-1" v:mID="92" v:groupContext="shape" transform="translate(100.094,-124.831)">
			<title>Sheet.92</title>
			<rect x="0" y="351.859" width="6.22357" height="112.024" class="st1"/>
		</g>
		<g id="shape94-3" v:mID="94" v:groupContext="shape" transform="translate(91.5364,-187.885)">
			<title>Playback 1</title>
			<rect x="0" y="424.904" width="22.4376" height="38.9792" class="st1"/>
		</g>
		<g id="shape93-5" v:mID="93" v:groupContext="shape" transform="translate(135.797,-124.831)">
			<title>Sheet.93</title>
			<rect x="0" y="351.859" width="6.22357" height="112.024" class="st1"/>
		</g>
		<g id="shape95-7" v:mID="95" v:groupContext="shape" transform="translate(127.69,-187.722)">
			<title>Playback 2</title>
			<rect x="0" y="424.904" width="22.8061" height="38.9792" class="st1"/>
		</g>
		<g id="shape98-9" v:mID="98" v:groupContext="shape" transform="translate(91.9049,-60.6298)">
			<title>Stop Back</title>
			<rect x="0" y="434.403" width="58.9601" height="29.4801" class="st1"/>
		</g>
		<g id="shape99-11" v:mID="99" v:groupContext="shape" transform="translate(91.9049,-21.6506)">
			<title>Go</title>
			<rect x="0" y="434.403" width="58.9601" height="29.4801" class="st1"/>
		</g>
		<g id="shape101-13" v:mID="101" v:groupContext="shape" transform="translate(34.8282,-124.831)">
			<title>Sheet.101</title>
			<rect x="0" y="351.859" width="6.22357" height="112.024" class="st1"/>
		</g>
		<g id="shape102-15" v:mID="102" v:groupContext="shape" transform="translate(26.2708,-187.885)">
			<title>Grandmaster</title>
			<rect x="0" y="424.904" width="22.4376" height="38.9792" class="st1"/>
		</g>
		<g id="shape103-17" v:mID="103" v:groupContext="shape" transform="translate(23.1181,-265.353)">
			<title>Black Out</title>
			<rect x="0" y="434.403" width="29.4801" height="29.4801" class="st1"/>
		</g>
		<g id="shape104-19" v:mID="104" v:groupContext="shape" transform="translate(539.019,-114.677)">
			<title>Manual Wheel</title>
			<rect x="0" y="400.501" width="29.4801" height="63.3822" class="st1"/>
		</g>
		<g id="shape137-21" v:mID="137" v:groupContext="shape" transform="translate(306.307,-136.295)">
			<title>+</title>
			<rect x="0" y="434.403" width="29.4801" height="29.4801" class="st1"/>
		</g>
		<g id="shape138-23" v:mID="138" v:groupContext="shape" transform="translate(335.787,-136.295)">
			<title>Thru</title>
			<rect x="0" y="434.403" width="29.4801" height="29.4801" class="st1"/>
		</g>
		<g id="shape139-25" v:mID="139" v:groupContext="shape" transform="translate(306.307,-106.815)">
			<title>7</title>
			<rect x="0" y="434.403" width="29.4801" height="29.4801" class="st1"/>
		</g>
		<g id="shape140-27" v:mID="140" v:groupContext="shape" transform="translate(335.787,-106.815)">
			<title>8</title>
			<rect x="0" y="434.403" width="29.4801" height="29.4801" class="st1"/>
		</g>
		<g id="shape141-29" v:mID="141" v:groupContext="shape" transform="translate(306.307,-77.3351)">
			<title>4</title>
			<rect x="0" y="434.403" width="29.4801" height="29.4801" class="st1"/>
		</g>
		<g id="shape142-31" v:mID="142" v:groupContext="shape" transform="translate(335.787,-77.3351)">
			<title>5</title>
			<rect x="0" y="434.403" width="29.4801" height="29.4801" class="st1"/>
		</g>
		<g id="shape143-33" v:mID="143" v:groupContext="shape" transform="translate(306.307,-47.8551)">
			<title>1</title>
			<rect x="0" y="434.403" width="29.4801" height="29.4801" class="st1"/>
		</g>
		<g id="shape144-35" v:mID="144" v:groupContext="shape" transform="translate(335.787,-47.8551)">
			<title>2</title>
			<rect x="0" y="434.403" width="29.4801" height="29.4801" class="st1"/>
		</g>
		<g id="shape145-37" v:mID="145" v:groupContext="shape" transform="translate(306.307,-18.375)">
			<title>Clear</title>
			<rect x="0" y="434.403" width="29.4801" height="29.4801" class="st1"/>
		</g>
		<g id="shape146-39" v:mID="146" v:groupContext="shape" transform="translate(335.787,-18.375)">
			<title>0</title>
			<rect x="0" y="434.403" width="29.4801" height="29.4801" class="st1"/>
		</g>
		<g id="shape147-41" v:mID="147" v:groupContext="shape" transform="translate(365.267,-136.295)">
			<title>-</title>
			<rect x="0" y="434.403" width="29.4801" height="29.4801" class="st1"/>
		</g>
		<g id="shape148-43" v:mID="148" v:groupContext="shape" transform="translate(365.267,-106.815)">
			<title>9</title>
			<rect x="0" y="434.403" width="29.4801" height="29.4801" class="st1"/>
		</g>
		<g id="shape149-45" v:mID="149" v:groupContext="shape" transform="translate(365.267,-77.3351)">
			<title>6</title>
			<rect x="0" y="434.403" width="29.4801" height="29.4801" class="st1"/>
		</g>
		<g id="shape150-47" v:mID="150" v:groupContext="shape" transform="translate(365.267,-47.8551)">
			<title>3</title>
			<rect x="0" y="434.403" width="29.4801" height="29.4801" class="st1"/>
		</g>
		<g id="shape151-49" v:mID="151" v:groupContext="shape" transform="translate(365.267,-18.375)">
			<title>.</title>
			<rect x="0" y="434.403" width="29.4801" height="29.4801" class="st1"/>
		</g>
		<g id="shape153-51" v:mID="153" v:groupContext="shape" transform="translate(191.81,-136.295)">
			<title>Part</title>
			<rect x="0" y="434.403" width="29.4801" height="29.4801" class="st1"/>
		</g>
		<g id="shape154-53" v:mID="154" v:groupContext="shape" transform="translate(221.29,-136.295)">
			<title>Cue</title>
			<rect x="0" y="434.403" width="29.4801" height="29.4801" class="st1"/>
		</g>
		<g id="shape155-55" v:mID="155" v:groupContext="shape" transform="translate(191.81,-106.815)">
			<title>Int Palette</title>
			<rect x="0" y="434.403" width="29.4801" height="29.4801" class="st1"/>
		</g>
		<g id="shape156-57" v:mID="156" v:groupContext="shape" transform="translate(221.29,-106.815)">
			<title>Focus Palette</title>
			<rect x="0" y="434.403" width="29.4801" height="29.4801" class="st1"/>
		</g>
		<g id="shape157-59" v:mID="157" v:groupContext="shape" transform="translate(191.81,-77.3351)">
			<title>Color Palette</title>
			<rect x="0" y="434.403" width="29.4801" height="29.4801" class="st1"/>
		</g>
		<g id="shape158-61" v:mID="158" v:groupContext="shape" transform="translate(221.29,-77.3351)">
			<title>Beam Palette</title>
			<rect x="0" y="434.403" width="29.4801" height="29.4801" class="st1"/>
		</g>
		<g id="shape159-63" v:mID="159" v:groupContext="shape" transform="translate(191.81,-47.8551)">
			<title>Preset</title>
			<rect x="0" y="434.403" width="29.4801" height="29.4801" class="st1"/>
		</g>
		<g id="shape160-65" v:mID="160" v:groupContext="shape" transform="translate(221.29,-47.8551)">
			<title>Sub</title>
			<rect x="0" y="434.403" width="29.4801" height="29.4801" class="st1"/>
		</g>
		<g id="shape161-67" v:mID="161" v:groupContext="shape" transform="translate(191.81,-18.375)">
			<title>Sneak.161</title>
			<rect x="0" y="434.403" width="29.4801" height="29.4801" class="st1"/>
		</g>
		<g id="shape162-69" v:mID="162" v:groupContext="shape" transform="translate(221.29,-18.375)">
			<title>Delay</title>
			<rect x="0" y="434.403" width="29.4801" height="29.4801" class="st1"/>
		</g>
		<g id="shape163-71" v:mID="163" v:groupContext="shape" transform="translate(250.77,-136.295)">
			<title>Record</title>
			<rect x="0" y="434.403" width="29.4801" height="29.4801" class="st1"/>
		</g>
		<g id="shape164-73" v:mID="164" v:groupContext="shape" transform="translate(250.77,-106.815)">
			<title>Record Only</title>
			<rect x="0" y="434.403" width="29.4801" height="29.4801" class="st1"/>
		</g>
		<g id="shape165-75" v:mID="165" v:groupContext="shape" transform="translate(250.77,-77.3351)">
			<title>Update</title>
			<rect x="0" y="434.403" width="29.4801" height="29.4801" class="st1"/>
		</g>
		<g id="shape166-77" v:mID="166" v:groupContext="shape" transform="translate(250.77,-47.8551)">
			<title>Group</title>
			<rect x="0" y="434.403" width="29.4801" height="29.4801" class="st1"/>
		</g>
		<g id="shape167-79" v:mID="167" v:groupContext="shape" transform="translate(250.77,-18.375)">
			<title>Time</title>
			<rect x="0" y="434.403" width="29.4801" height="29.4801" class="st1"/>
		</g>
		<g id="shape169-81" v:mID="169" v:groupContext="shape" transform="translate(191.81,-207.539)">
			<title>Macro</title>
			<rect x="0" y="434.403" width="29.4801" height="29.4801" class="st1"/>
		</g>
		<g id="shape170-83" v:mID="170" v:groupContext="shape" transform="translate(221.29,-207.539)">
			<title>Learn</title>
			<rect x="0" y="434.403" width="29.4801" height="29.4801" class="st1"/>
		</g>
		<g id="shape171-85" v:mID="171" v:groupContext="shape" transform="translate(191.81,-178.059)">
			<title>Delete</title>
			<rect x="0" y="434.403" width="29.4801" height="29.4801" class="st1"/>
		</g>
		<g id="shape172-87" v:mID="172" v:groupContext="shape" transform="translate(221.29,-178.059)">
			<title>Help</title>
			<rect x="0" y="434.403" width="29.4801" height="29.4801" class="st1"/>
		</g>
		<g id="shape179-89" v:mID="179" v:groupContext="shape" transform="translate(250.77,-207.539)">
			<title>Label/Note</title>
			<rect x="0" y="434.403" width="29.4801" height="29.4801" class="st1"/>
		</g>
		<g id="shape180-91" v:mID="180" v:groupContext="shape" transform="translate(250.77,-178.059)">
			<title>Effect</title>
			<rect x="0" y="434.403" width="29.4801" height="29.4801" class="st1"/>
		</g>
		<g id="shape186-93" v:mID="186" v:groupContext="shape" transform="translate(306.307,-207.539)">
			<title>About</title>
			<rect x="0" y="434.403" width="29.4801" height="29.4801" class="st1"/>
		</g>
		<g id="shape187-95" v:mID="187" v:groupContext="shape" transform="translate(335.787,-207.539)">
			<title>Copy To</title>
			<rect x="0" y="434.403" width="29.4801" height="29.4801" class="st1"/>
		</g>
		<g id="shape188-97" v:mID="188" v:groupContext="shape" transform="translate(306.307,-178.059)">
			<title>Go To Cue</title>
			<rect x="0" y="434.403" width="29.4801" height="29.4801" class="st1"/>
		</g>
		<g id="shape189-99" v:mID="189" v:groupContext="shape" transform="translate(335.787,-178.059)">
			<title>Block</title>
			<rect x="0" y="434.403" width="29.4801" height="29.4801" class="st1"/>
		</g>
		<g id="shape190-101" v:mID="190" v:groupContext="shape" transform="translate(365.267,-207.539)">
			<title>Recall From</title>
			<rect x="0" y="434.403" width="29.4801" height="29.4801" class="st1"/>
		</g>
		<g id="shape191-103" v:mID="191" v:groupContext="shape" transform="translate(365.267,-178.059)">
			<title>Undo</title>
			<rect x="0" y="434.403" width="29.4801" height="29.4801" class="st1"/>
		</g>
		<g id="shape193-105" v:mID="193" v:groupContext="shape" transform="translate(421.099,-207.539)">
			<title>Park</title>
			<rect x="0" y="434.403" width="29.4801" height="29.4801" class="st1"/>
		</g>
		<g id="shape194-107" v:mID="194" v:groupContext="shape" transform="translate(450.579,-207.539)">
			<title>Last</title>
			<rect x="0" y="434.403" width="29.4801" height="29.4801" class="st1"/>
		</g>
		<g id="shape195-109" v:mID="195" v:groupContext="shape" transform="translate(421.099,-178.059)">
			<title>Capture</title>
			<rect x="0" y="434.403" width="29.4801" height="29.4801" class="st1"/>
		</g>
		<g id="shape196-111" v:mID="196" v:groupContext="shape" transform="translate(450.579,-178.059)">
			<title>Next</title>
			<rect x="0" y="434.403" width="29.4801" height="29.4801" class="st1"/>
		</g>
		<g id="shape105-113" v:mID="105" v:groupContext="shape" transform="translate(421.099,-136.295)">
			<title>/</title>
			<rect x="0" y="434.403" width="29.4801" height="29.4801" class="st1"/>
		</g>
		<g id="shape106-115" v:mID="106" v:groupContext="shape" transform="translate(450.579,-136.295)">
			<title>Sneak</title>
			<rect x="0" y="434.403" width="29.4801" height="29.4801" class="st1"/>
		</g>
		<g id="shape107-117" v:mID="107" v:groupContext="shape" transform="translate(421.099,-106.815)">
			<title>Rem Dim</title>
			<rect x="0" y="434.403" width="29.4801" height="29.4801" class="st1"/>
		</g>
		<g id="shape108-119" v:mID="108" v:groupContext="shape" transform="translate(450.579,-106.815)">
			<title>Home</title>
			<rect x="0" y="434.403" width="29.4801" height="29.4801" class="st1"/>
		</g>
		<g id="shape109-121" v:mID="109" v:groupContext="shape" transform="translate(421.099,-77.3351)">
			<title>Out</title>
			<rect x="0" y="434.403" width="29.4801" height="29.4801" class="st1"/>
		</g>
		<g id="shape110-123" v:mID="110" v:groupContext="shape" transform="translate(450.579,-77.3351)">
			<title>Select Last</title>
			<rect x="0" y="434.403" width="29.4801" height="29.4801" class="st1"/>
		</g>
		<g id="shape111-125" v:mID="111" v:groupContext="shape" transform="translate(421.099,-47.8551)">
			<title>Full</title>
			<rect x="0" y="434.403" width="29.4801" height="29.4801" class="st1"/>
		</g>
		<g id="shape112-127" v:mID="112" v:groupContext="shape" transform="translate(450.579,-47.8551)">
			<title>Q Only/Track</title>
			<rect x="0" y="434.403" width="29.4801" height="29.4801" class="st1"/>
		</g>
		<g id="shape113-129" v:mID="113" v:groupContext="shape" transform="translate(421.099,-18.375)">
			<title>At</title>
			<rect x="0" y="434.403" width="29.4801" height="29.4801" class="st1"/>
		</g>
		<g id="shape114-131" v:mID="114" v:groupContext="shape" transform="translate(450.579,-18.375)">
			<title>enter</title>
			<rect x="0" y="434.403" width="29.4801" height="29.4801" class="st1"/>
		</g>
		<g id="shape202-133" v:mID="202" v:groupContext="shape" transform="translate(509.539,-324.313)">
			<title>Live</title>
			<rect x="0" y="434.403" width="29.4801" height="29.4801" class="st1"/>
		</g>
		<g id="shape203-135" v:mID="203" v:groupContext="shape" transform="translate(539.019,-324.313)">
			<title>Blind</title>
			<rect x="0" y="434.403" width="29.4801" height="29.4801" class="st1"/>
		</g>
		<g id="shape204-137" v:mID="204" v:groupContext="shape" transform="translate(509.539,-294.833)">
			<title>Format</title>
			<rect x="0" y="434.403" width="29.4801" height="29.4801" class="st1"/>
		</g>
		<g id="shape205-139" v:mID="205" v:groupContext="shape" transform="translate(539.019,-294.833)">
			<title>Expand</title>
			<rect x="0" y="434.403" width="29.4801" height="29.4801" class="st1"/>
		</g>
		<g id="shape206-141" v:mID="206" v:groupContext="shape" transform="translate(509.539,-265.353)">
			<title>Tab</title>
			<rect x="0" y="434.403" width="29.4801" height="29.4801" class="st1"/>
		</g>
		<g id="shape207-143" v:mID="207" v:groupContext="shape" transform="translate(539.019,-265.353)">
			<title>Flexi</title>
			<rect x="0" y="434.403" width="29.4801" height="29.4801" class="st1"/>
		</g>
		<g id="shape208-145" v:mID="208" v:groupContext="shape" transform="translate(509.539,-235.872)">
			<title>Escape</title>
			<rect x="0" y="434.403" width="29.4801" height="29.4801" class="st1"/>
		</g>
		<g id="shape209-147" v:mID="209" v:groupContext="shape" transform="translate(539.019,-235.872)">
			<title>Page Up</title>
			<rect x="0" y="434.403" width="29.4801" height="29.4801" class="st1"/>
		</g>
		<g id="shape210-149" v:mID="210" v:groupContext="shape" transform="translate(509.539,-206.392)">
			<title>Page Left</title>
			<rect x="0" y="434.403" width="29.4801" height="29.4801" class="st1"/>
		</g>
		<g id="shape211-151" v:mID="211" v:groupContext="shape" transform="translate(539.019,-206.392)">
			<title>Page Down</title>
			<rect x="0" y="434.403" width="29.4801" height="29.4801" class="st1"/>
		</g>
		<g id="shape212-153" v:mID="212" v:groupContext="shape" transform="translate(568.499,-324.313)">
			<title>Displays</title>
			<rect x="0" y="434.403" width="29.4801" height="29.4801" class="st1"/>
		</g>
		<g id="shape213-155" v:mID="213" v:groupContext="shape" transform="translate(568.499,-294.833)">
			<title>Data</title>
			<rect x="0" y="434.403" width="29.4801" height="29.4801" class="st1"/>
		</g>
		<g id="shape214-157" v:mID="214" v:groupContext="shape" transform="translate(568.499,-265.353)">
			<title>Scroll Lock</title>
			<rect x="0" y="434.403" width="29.4801" height="29.4801" class="st1"/>
		</g>
		<g id="shape215-159" v:mID="215" v:groupContext="shape" transform="translate(568.499,-235.872)">
			<title>Select</title>
			<rect x="0" y="434.403" width="29.4801" height="29.4801" class="st1"/>
		</g>
		<g id="shape216-161" v:mID="216" v:groupContext="shape" transform="translate(568.499,-206.392)">
			<title>Page Right</title>
			<rect x="0" y="434.403" width="29.4801" height="29.4801" class="st1"/>
		</g>
		<g id="shape82-163" v:mID="82" v:groupContext="shape" transform="translate(450.579,-265.353)">
			<title>More SK</title>
			<rect x="0" y="434.403" width="29.4801" height="29.4801" class="st1"/>
		</g>
		<g id="shape83-165" v:mID="83" v:groupContext="shape" transform="translate(237.416,-265.353)">
			<title>S2</title>
			<rect x="0" y="434.403" width="29.4801" height="29.4801" class="st1"/>
		</g>
		<g id="shape84-167" v:mID="84" v:groupContext="shape" transform="translate(280.545,-265.353)">
			<title>S3</title>
			<rect x="0" y="434.403" width="29.4801" height="29.4801" class="st1"/>
		</g>
		<g id="shape85-169" v:mID="85" v:groupContext="shape" transform="translate(323.673,-265.353)">
			<title>S4</title>
			<rect x="0" y="434.403" width="29.4801" height="29.4801" class="st1"/>
		</g>
		<g id="shape86-171" v:mID="86" v:groupContext="shape" transform="translate(366.801,-265.353)">
			<title>S5</title>
			<rect x="0" y="434.403" width="29.4801" height="29.4801" class="st1"/>
		</g>
		<g id="shape87-173" v:mID="87" v:groupContext="shape" transform="translate(408.69,-265.353)">
			<title>S6</title>
			<rect x="0" y="434.403" width="29.4801" height="29.4801" class="st1"/>
		</g>
		<g id="shape88-175" v:mID="88" v:groupContext="shape" transform="translate(194.288,-265.353)">
			<title>S1</title>
			<rect x="0" y="434.403" width="29.4801" height="29.4801" class="st1"/>
		</g>
		<g id="shape89-177" v:mID="89" v:groupContext="shape" transform="translate(151.16,-265.353)">
			<title>Fader Control</title>
			<rect x="0" y="434.403" width="29.4801" height="29.4801" class="st1"/>
		</g>
		<g id="shape91-179" v:mID="91" v:groupContext="shape" transform="translate(108.032,-265.353)">
			<title>Load</title>
			<rect x="0" y="434.403" width="29.4801" height="29.4801" class="st1"/>
		</g>
		<g id="shape220-181" v:mID="220" v:groupContext="shape" transform="translate(509.539,-416.028)">
			<title>Focus</title>
			<rect x="0" y="434.403" width="29.4801" height="29.4801" class="st1"/>
		</g>
		<g id="shape221-183" v:mID="221" v:groupContext="shape" transform="translate(539.019,-416.028)">
			<title>Color</title>
			<rect x="0" y="434.403" width="29.4801" height="29.4801" class="st1"/>
		</g>
		<g id="shape222-185" v:mID="222" v:groupContext="shape" transform="translate(509.539,-386.548)">
			<title>Form</title>
			<rect x="0" y="434.403" width="29.4801" height="29.4801" class="st1"/>
		</g>
		<g id="shape223-187" v:mID="223" v:groupContext="shape" transform="translate(539.019,-386.548)">
			<title>Image</title>
			<rect x="0" y="434.403" width="29.4801" height="29.4801" class="st1"/>
		</g>
		<g id="shape224-189" v:mID="224" v:groupContext="shape" transform="translate(568.499,-416.028)">
			<title>Custom</title>
			<rect x="0" y="434.403" width="29.4801" height="29.4801" class="st1"/>
		</g>
		<g id="shape225-191" v:mID="225" v:groupContext="shape" transform="translate(568.499,-386.548)">
			<title>Shutter</title>
			<rect x="0" y="434.403" width="29.4801" height="29.4801" class="st1"/>
		</g>
		<g id="shape226-193" v:mID="226" v:groupContext="shape" transform="translate(372.784,-386.548)">
			<title>Encoder 4</title>
			<ellipse cx="29.4801" cy="434.403" rx="29.4801" ry="29.4801" class="st1"/>
		</g>
		<g id="shape241-195" v:mID="241" v:groupContext="shape" transform="translate(279.801,-386.548)">
			<title>Encoder 3</title>
			<ellipse cx="29.4801" cy="434.403" rx="29.4801" ry="29.4801" class="st1"/>
		</g>
		<g id="shape242-197" v:mID="242" v:groupContext="shape" transform="translate(186.817,-386.548)">
			<title>Encoder 2</title>
			<ellipse cx="29.4801" cy="434.403" rx="29.4801" ry="29.4801" class="st1"/>
		</g>
		<g id="shape243-199" v:mID="243" v:groupContext="shape" transform="translate(93.8332,-386.548)">
			<title>Encoder 1</title>
			<ellipse cx="29.4801" cy="434.403" rx="29.4801" ry="29.4801" class="st1"/>
		</g>
		<g id="shape246-201" v:mID="246" v:groupContext="shape" transform="translate(81.2593,-306.625)">
			<title>Sheet.246</title>
			<rect x="0" y="398.372" width="356.911" height="65.5113" class="st2"/>
		</g>
	</g>
</svg>
