<?xml version="1.0" encoding="UTF-8" standalone="no"?>
<!-- Created with Inkscape (http://www.inkscape.org/) -->

<svg
   width="200"
   height="200"
   viewBox="0 0 12.7 12.7"
   version="1.1"
   id="svg5"
   inkscape:version="1.1 (c68e22c387, 2021-05-23)"
   sodipodi:docname="favicon.svg"
   xmlns:inkscape="http://www.inkscape.org/namespaces/inkscape"
   xmlns:sodipodi="http://sodipodi.sourceforge.net/DTD/sodipodi-0.dtd"
   xmlns="http://www.w3.org/2000/svg"
   xmlns:svg="http://www.w3.org/2000/svg">
  <sodipodi:namedview
     id="namedview7"
     pagecolor="#ffffff"
     bordercolor="#666666"
     borderopacity="1.0"
     inkscape:pageshadow="2"
     inkscape:pageopacity="0.0"
     inkscape:pagecheckerboard="0"
     inkscape:document-units="px"
     showgrid="false"
     units="px"
     inkscape:zoom="11.313709"
     inkscape:cx="14.18633"
     inkscape:cy="29.212349"
     inkscape:window-width="1920"
     inkscape:window-height="1057"
     inkscape:window-x="-8"
     inkscape:window-y="76"
     inkscape:window-maximized="1"
     inkscape:current-layer="g921">
    <sodipodi:guide
       position="0,69.485952"
       orientation="0,434.17626"
       id="guide2482" />
    <sodipodi:guide
       position="114.8758,69.485952"
       orientation="262.62408,0"
       id="guide2484" />
    <sodipodi:guide
       position="114.8758,0"
       orientation="0,-434.17626"
       id="guide2486" />
    <sodipodi:guide
       position="0,0"
       orientation="-262.62408,0"
       id="guide2488" />
  </sodipodi:namedview>
  <defs
     id="defs2">
    <rect
       x="115.40235"
       y="158.15244"
       width="55.917465"
       height="23.208464"
       id="rect1049" />
    <rect
       x="116.08096"
       y="158.15244"
       width="48.181313"
       height="22.665575"
       id="rect1043" />
    <rect
       x="165.21233"
       y="167.51726"
       width="3.9359381"
       height="25.515738"
       id="rect1037" />
  </defs>
  <g
     inkscape:label="Layer 1"
     inkscape:groupmode="layer"
     id="layer1"
     transform="translate(-50.828744,-5.7879901)">
    <g
       id="g921"
       transform="translate(-5.8181369,-156.57169)">
      <g
         transform="matrix(0.11045522,0,0,0.11045952,50.389937,144.42551)"
         id="text1035"
         style="font-size:10.5833px;line-height:1.25;white-space:pre;shape-inside:url(#rect1037)" />
      <path
         id="path993"
         style="fill:#e10011;fill-opacity:1;stroke-width:0.120573"
         d="m 61.146412,164.51947 c -0.0096,0.002 -0.0097,0.0206 -0.0097,0.0938 v 0.0986 l 0.08424,0.04 c 0.10375,0.0493 0.228354,0.0857 0.366801,0.10689 0.150419,0.023 0.44158,0.0303 0.651483,0.0163 0.442929,-0.0296 0.487618,-0.0271 0.575595,0.0311 0.05182,0.0342 0.102743,0.12294 0.114334,0.19895 l 0.0064,0.042 -0.07283,0.058 c -0.07682,0.0613 -0.140826,0.13499 -0.177327,0.20412 -0.01934,0.0366 -0.02266,0.0638 -0.02792,0.23043 l -0.006,0.18885 -0.09894,0.20263 c -0.05442,0.11146 -0.09894,0.2045 -0.09894,0.20675 0,0.002 0.03642,0.004 0.08093,0.004 0.05996,0 0.08507,0.004 0.09695,0.016 0.02126,0.0213 0.02033,0.0305 -0.0093,0.0943 -0.03375,0.0726 -0.118152,0.15906 -0.262687,0.26943 -0.199591,0.15237 -0.273342,0.25576 -0.273342,0.38313 0,0.036 -0.0049,0.0744 -0.01069,0.0854 -0.006,0.0109 -0.0559,0.0424 -0.111217,0.0703 -0.05531,0.0276 -0.110226,0.0627 -0.122062,0.0779 -0.05764,0.0733 0.009,0.20055 0.164803,0.31421 0.03827,0.028 0.04931,0.0597 0.02578,0.0742 -0.01401,0.008 -1.017971,0.007 -1.837814,-0.003 l -0.538459,-0.006 v 0.12033 0.12031 l 1.352004,-0.007 1.351942,-0.007 0.02616,0.0261 c 0.02946,0.0294 0.03397,0.069 0.01008,0.0889 -0.05356,0.0445 -0.218479,0.32943 -0.286928,0.49573 -0.01266,0.0308 -0.02924,0.0538 -0.04051,0.0567 -0.01047,0.002 -0.09946,-0.0127 -0.197701,-0.0339 -0.333719,-0.0725 -0.508981,-0.0849 -0.765567,-0.0546 -0.131015,0.0154 -0.313943,0.0276 -0.689119,0.0462 -0.117908,0.005 -0.272228,0.0192 -0.342879,0.0299 -0.192235,0.029 -0.269339,0.016 -0.512288,-0.0857 -0.222434,-0.0933 -0.390871,-0.11302 -0.835353,-0.098 -0.170677,0.005 -0.340216,0.0129 -0.376712,0.0157 -0.0365,0.003 -0.191553,0.009 -0.344621,0.0159 -0.18622,0.007 -0.291663,0.0154 -0.318578,0.0249 -0.06349,0.0224 -0.138475,0.0747 -0.302749,0.21161 -0.302211,0.25168 -0.438688,0.33675 -0.660582,0.41162 -0.112578,0.0379 -0.104732,0.0417 0.05228,0.0245 0.351004,-0.0382 0.643473,-0.15222 0.917103,-0.35755 0.07011,-0.0526 0.168911,-0.0396 0.213213,0.028 0.02567,0.0392 0.02549,0.10722 -4.38e-4,0.14313 -0.03607,0.05 -0.226416,0.13091 -0.418205,0.1776 l -0.07145,0.0175 0.07145,-0.004 c 0.211607,-0.0138 0.459371,-0.0634 0.626374,-0.12511 0.120672,-0.0445 0.293806,-0.13521 0.384002,-0.20108 0.04227,-0.0309 0.0915,-0.0603 0.109411,-0.0655 0.03478,-0.009 0.09312,0.001 0.121,0.0237 0.05021,0.04 0.06514,0.1131 0.03503,0.17134 -0.02855,0.0552 -0.203285,0.12375 -0.454093,0.17809 l -0.117327,0.0255 0.08163,-0.006 c 0.412572,-0.0295 0.834146,-0.1605 1.094863,-0.34022 0.108375,-0.0746 0.18725,-0.0995 0.262749,-0.0825 0.116266,0.026 0.189171,0.0938 0.188854,0.1756 -6.5e-5,0.0184 -0.01135,0.0688 -0.02499,0.11145 -0.03804,0.11914 -0.05059,0.23734 -0.03725,0.3505 0.01978,0.16766 0.06268,0.28025 0.171906,0.45132 0.03887,0.0608 0.102139,0.16814 0.140502,0.23832 0.151762,0.27759 0.297418,0.53058 0.360261,0.62565 0.09912,0.14999 0.130324,0.26457 0.216019,0.79434 0.04044,0.24997 0.0751,0.37962 0.107916,0.40363 0.0088,0.006 0.05392,0.015 0.09995,0.0187 0.04601,0.004 0.322513,0.0338 0.614473,0.0664 0.29196,0.0328 0.563022,0.0625 0.602324,0.0662 0.134429,0.0127 0.224158,0.0493 0.386056,0.15789 0.0624,0.0418 0.122833,0.0912 0.138944,0.1134 0.04956,0.0685 0.135193,0.26966 0.127606,0.29992 -0.0091,0.0368 -0.09374,0.12825 -0.133897,0.14504 -0.05745,0.024 -0.08492,0.0166 -0.213839,-0.0576 -0.06827,-0.0393 -0.128305,-0.0714 -0.1334,-0.0714 -0.01058,0 -0.10627,0.0772 -0.250599,0.20194 -0.120139,0.10395 -0.124185,0.11818 -0.04591,0.16124 0.04718,0.026 0.06339,0.0293 0.135268,0.0286 0.0489,-5.6e-4 0.114432,-0.009 0.163308,-0.023 0.157804,-0.0426 0.298745,-0.0389 0.52064,0.0138 h 6.3e-5 c 0.05613,0.0134 0.108505,0.0246 0.116391,0.025 0.02069,0.001 0.0811,-0.0657 0.163244,-0.1807 0.03939,-0.0551 0.08081,-0.10862 0.09204,-0.11881 0.01124,-0.0109 0.122802,-0.0503 0.247982,-0.0893 0.125184,-0.0389 0.255861,-0.0839 0.290354,-0.0999 0.07901,-0.0367 0.186244,-0.10873 0.35702,-0.23983 0.07365,-0.0564 0.147876,-0.11035 0.164989,-0.11964 0.04835,-0.0262 0.06271,-0.058 0.08482,-0.18861 0.0344,-0.20311 0.09124,-0.29473 0.234462,-0.37797 0.07145,-0.0416 0.07958,-0.0497 0.101131,-0.10176 0.01289,-0.0311 0.05202,-0.0964 0.08698,-0.14506 0.03498,-0.0487 0.07291,-0.107 0.08436,-0.12942 0.02207,-0.0432 0.07902,-0.22054 0.115082,-0.35828 0.0119,-0.0455 0.03003,-0.0965 0.04026,-0.11327 0.01047,-0.0174 0.07053,-0.0647 0.138323,-0.1093 0.12738,-0.0838 0.221786,-0.16566 0.246798,-0.21403 0.01114,-0.0216 0.01625,-0.0739 0.01892,-0.1941 0.0021,-0.0905 0.0081,-0.20924 0.01359,-0.26381 0.01458,-0.14631 0.03985,-0.18599 0.213776,-0.33579 0.04252,-0.0366 0.04278,-0.0372 0.04268,-0.1072 -3.1e-5,-0.0386 -0.0091,-0.13166 -0.02045,-0.20657 -0.01121,-0.075 -0.0203,-0.15427 -0.0203,-0.1764 0,-0.0792 0.04543,-0.14915 0.128602,-0.19791 0.02339,-0.0137 0.04552,-0.0328 0.04921,-0.0423 0.0037,-0.009 0.0038,-0.066 0,-0.12537 -0.0063,-0.10083 -0.0053,-0.10963 0.01566,-0.13591 0.01226,-0.0154 0.04153,-0.0393 0.06498,-0.0529 0.04347,-0.0254 0.207085,-0.0772 0.24381,-0.0772 0.01114,0 0.0577,0.0184 0.103501,0.041 0.142829,0.0705 0.300365,0.0878 0.506871,0.0559 0.137706,-0.0212 0.276239,-0.0195 0.370167,0.004 0.09026,0.023 0.131083,0.0426 0.262314,0.12618 0.119494,0.076 0.204784,0.11207 0.243062,0.10281 0.0456,-0.0109 0.102036,-0.0427 0.119131,-0.0673 0.0403,-0.0575 0.0064,-0.11448 -0.08912,-0.14941 -0.111636,-0.041 -0.252222,-0.15618 -0.252222,-0.20694 0,-0.0394 0.02412,-0.0442 0.182812,-0.0361 0.164512,0.008 0.250581,0.0271 0.356646,0.0781 0.139083,0.0666 0.161158,0.0542 0.15203,-0.086 -0.0062,-0.0948 -0.03663,-0.18518 -0.07694,-0.2283 -0.02784,-0.0296 -0.08348,-0.0509 -0.326115,-0.12449 -0.09609,-0.0291 -0.10469,-0.0337 -0.10469,-0.0571 0,-0.0178 0.0078,-0.0283 0.02623,-0.0352 0.01532,-0.005 0.18591,-0.009 0.411725,-0.009 0.713391,-0.002 0.684742,-0.005 1.381893,-0.0125 v -0.0481 -0.0481 c -0.65414,-0.0173 -0.688972,-0.0163 -1.284943,-0.0205 l -1.103524,-0.007 -0.06537,-0.0455 c -0.03594,-0.0251 -0.132813,-0.0942 -0.215332,-0.15314 -0.08251,-0.059 -0.165184,-0.11662 -0.183682,-0.12792 -0.01849,-0.0112 -0.0552,-0.0524 -0.08157,-0.0913 -0.06656,-0.0981 -0.07081,-0.0998 -0.230911,-0.0856 -0.172766,0.0154 -0.173404,0.0151 -0.28275,-0.15658 -0.04492,-0.0706 -0.0932,-0.14202 -0.10723,-0.15889 -0.04606,-0.0553 -0.06515,-0.0611 -0.224558,-0.0679 -0.08141,-0.003 -0.193571,-0.0131 -0.249227,-0.0216 -0.05566,-0.008 -0.106182,-0.0153 -0.112277,-0.0151 -0.01756,6.1e-4 0.06371,0.0673 0.142994,0.1174 0.08198,0.0517 0.173101,0.0911 0.234651,0.10114 0.06144,0.0109 0.103688,0.0403 0.128974,0.0925 0.02033,0.0418 0.02089,0.0475 0.0064,0.062 -0.0415,0.0415 -0.185952,0.0464 -0.274028,0.009 -0.06385,-0.0268 -0.13146,-0.0325 -0.193965,-0.016 -0.01966,0.005 -0.06243,0.0146 -0.09503,0.0212 -0.05074,0.0109 -0.05741,0.0139 -0.0466,0.0269 0.02097,0.0253 0.08291,0.0523 0.136763,0.0597 0.07865,0.0109 0.118099,0.0255 0.170724,0.0636 0.05072,0.0369 0.06182,0.0668 0.03064,0.0827 -0.0097,0.005 -0.07993,0.0118 -0.155707,0.0153 l -0.137824,0.006 -0.121996,-0.04 c -0.06711,-0.022 -0.123482,-0.0385 -0.1253,-0.0366 -0.0019,0.002 0.02882,0.0414 0.06811,0.0879 0.07813,0.0926 0.100538,0.1393 0.08269,0.17265 -0.01956,0.0365 -0.08327,0.0463 -0.301566,0.0458 -0.226663,-3.8e-4 -0.410042,-0.0156 -0.556407,-0.0461 -0.124718,-0.026 -0.275589,-0.0469 -0.39808,-0.0552 -0.05333,-0.003 -0.110761,-0.0109 -0.127603,-0.0162 -0.0177,-0.005 -0.09591,-0.0732 -0.185241,-0.15993 l -0.154585,-0.15029 -0.01721,-0.11745 c -0.0094,-0.0647 -0.02847,-0.17944 -0.04241,-0.25522 -0.01394,-0.0758 -0.02927,-0.16901 -0.03407,-0.20714 -0.0049,-0.038 -0.01409,-0.0757 -0.02061,-0.0838 -0.0067,-0.007 -0.0344,-0.0217 -0.06187,-0.0309 -0.0545,-0.018 -0.0936,-0.0567 -0.110721,-0.10935 -0.006,-0.0183 -0.0177,-0.0824 -0.02605,-0.14231 -0.01351,-0.0972 -0.01348,-0.11485 4.35e-4,-0.16338 0.0085,-0.0299 0.01826,-0.0816 0.02145,-0.11446 l 0.0059,-0.06 -0.07789,-0.0741 c -0.05465,-0.052 -0.07789,-0.0816 -0.07789,-0.0985 0,-0.0239 0.04263,-0.0712 0.120751,-0.13403 l 0.03395,-0.0272 h 0.314904 0.314899 l -0.124304,-0.12692 c -0.11392,-0.11631 -0.132357,-0.13079 -0.221253,-0.17396 -0.05334,-0.0259 -0.127715,-0.0563 -0.165298,-0.068 -0.03759,-0.0114 -0.07312,-0.0265 -0.07895,-0.0337 -0.006,-0.007 -0.02221,-0.0528 -0.0364,-0.10167 -0.06718,-0.23184 -0.168023,-0.3364 -0.35129,-0.36436 -0.07927,-0.0122 -0.09552,-0.0111 -0.399139,0.0227 -0.237308,0.0264 -0.471615,0.0225 -0.5941,-0.0109 -0.09731,-0.0259 -0.189695,-0.0708 -0.264368,-0.12858 -0.05673,-0.0438 -0.05772,-0.0441 -0.1582,-0.0494 -0.05563,-0.003 -0.111483,-0.008 -0.124116,-0.0127 -0.0059,-0.002 -0.0099,-0.003 -0.01322,-0.002 z m 3.385715,3.30471 c 0.11619,7e-5 0.22826,0.004 0.236705,0.0128 0.0203,0.0203 0.01422,0.0685 -0.01195,0.0946 -0.03159,0.0316 -0.08662,0.0461 -0.174897,0.0463 -0.107819,2e-4 -0.23196,0.017 -0.273903,0.037 -0.02058,0.009 -0.03745,0.0204 -0.03745,0.0236 5e-6,0.003 0.03443,0.0212 0.07648,0.04 0.101598,0.0457 0.16854,0.0892 0.16854,0.10922 0,0.008 -0.06121,0.0795 -0.136016,0.15653 -0.07485,0.0771 -0.154838,0.16549 -0.177763,0.19653 -0.05126,0.0693 -0.123058,0.13364 -0.180318,0.16136 -0.04659,0.0225 -0.112065,0.0259 -0.166982,0.008 -0.04361,-0.014 -0.1011,-0.0775 -0.15533,-0.17159 -0.0566,-0.0981 -0.116933,-0.17916 -0.145801,-0.19565 -0.01409,-0.008 -0.07712,-0.015 -0.164056,-0.0181 -0.122124,-0.004 -0.143066,-0.007 -0.155017,-0.024 -0.0097,-0.0135 -0.01109,-0.0262 -0.0044,-0.0441 0.01315,-0.0346 0.01196,-0.11238 -0.0021,-0.13934 -0.0064,-0.0122 -0.02966,-0.042 -0.05166,-0.0661 -0.06268,-0.0687 -0.03877,-0.11388 0.06029,-0.11422 0.0236,-1e-4 0.101682,-0.0193 0.173526,-0.0426 l 0.13066,-0.0425 0.34705,-0.001 c 0.235057,-0.001 0.358602,-0.005 0.382753,-0.0136 0.02503,-0.008 0.145375,-0.0126 0.261566,-0.0126 z m -2.893924,2.50417 c 0.04838,-3.6e-4 0.08615,0.0243 0.145115,0.0779 0.116659,0.10557 0.328701,0.20842 0.76719,0.37178 0.48391,0.18028 0.530486,0.19927 0.557274,0.22775 0.02284,0.0243 0.02508,0.0366 0.03084,0.16711 0.0049,0.10808 0.01069,0.15002 0.02549,0.18027 0.04225,0.0863 0.13163,0.10962 0.309727,0.0812 0.09047,-0.0144 0.120116,-0.0154 0.174712,-0.005 0.144252,0.026 0.234151,0.0703 0.234151,0.11546 0,0.0519 -0.05119,0.1787 -0.15963,0.39473 -0.129373,0.25778 -0.122207,0.24883 -0.269293,0.33722 -0.09916,0.0596 -0.137217,0.0638 -0.223122,0.0247 -0.05871,-0.0266 -0.135858,-0.0322 -0.209229,-0.0153 -0.02175,0.005 -0.04785,0.006 -0.058,0.002 -0.0099,-0.004 -0.128019,-0.13781 -0.261939,-0.29783 l -0.243497,-0.29093 -0.111967,-0.0591 c -0.06159,-0.0326 -0.130318,-0.0714 -0.152778,-0.0863 -0.05635,-0.0374 -0.119635,-0.0396 -0.373967,-0.0134 -0.22132,0.0228 -0.260444,0.0217 -0.363065,-0.011 -0.104296,-0.0333 -0.145986,-0.0801 -0.145986,-0.16387 0,-0.0758 0.07147,-0.87923 0.08157,-0.91676 0.0086,-0.0326 0.01743,-0.0392 0.09926,-0.0754 0.06547,-0.0289 0.109542,-0.0444 0.147166,-0.0447 z m 2.342134,0.48299 c 0.04904,-0.002 0.0881,0.0203 0.111215,0.065 0.01382,0.0267 0.01327,0.0406 -0.006,0.14511 -0.03419,0.18726 -0.03109,0.18461 -0.271348,0.23329 -0.08314,0.0169 -0.169572,0.0306 -0.192033,0.0305 -0.04943,-1.7e-4 -0.113704,-0.0283 -0.146857,-0.0643 -0.02188,-0.0238 -0.02373,-0.0325 -0.0177,-0.084 0.008,-0.0692 0.02714,-0.10863 0.06494,-0.13483 0.03272,-0.0227 0.330863,-0.15554 0.405434,-0.18058 0.01835,-0.006 0.0358,-0.009 0.05215,-0.0109 z m -0.686946,-4.41281 c -0.02705,-0.005 -0.06402,-0.049 -0.06402,-0.0759 0,-0.0178 0.01029,-0.019 0.149328,-0.019 h 0.149326 l -0.0068,0.0423 c -0.0038,0.0233 -0.009,0.0463 -0.01213,0.0509 -0.0054,0.008 -0.172765,0.009 -0.215748,0.001 z m -0.08443,-0.24804 v -0.051 h 0.183752 c 0.200767,0 0.191658,-0.003 0.173007,0.0638 l -0.01058,0.0382 h -0.173073 -0.173063 z m 0.02042,-0.2042 v -0.0509 h 0.199067 c 0.221424,0 0.21329,-0.003 0.187856,0.07 l -0.01122,0.0322 H 63.417229 63.22937 Z m -0.09443,-0.17673 c -0.03287,-0.027 -0.03607,-0.053 -0.0082,-0.068 0.01207,-0.006 0.117067,-0.0109 0.270163,-0.0109 0.241986,0 0.250798,7.3e-4 0.261618,0.021 0.0062,0.0114 0.0097,0.0334 0.0079,0.0484 l -0.0031,0.0274 -0.250107,0.002 c -0.246332,0.002 -0.250531,0.002 -0.27818,-0.0208 z"
         sodipodi:nodetypes="cscsccccccscccsscccsccccccccccccccccccccccccccccccccccsccccccccccccccccccccccccscccccccccccccccccccccccccccscccccscccccccscccccscccccccccccccccccccccccccccccccccccccccccccccccccccsccccccccccccccccccccccccsccccscccccccccccccccccccccscccccccccccsccccccccccccccccsscccccccscccccccscccccccscccccc" />
      <g
         transform="matrix(0.11045522,0,0,0.11045952,50.389937,144.42551)"
         id="text1041"
         style="font-size:10.5833px;line-height:1.25;white-space:pre;shape-inside:url(#rect1043)" />
      <g
         transform="matrix(0.11045522,0,0,0.11045952,50.389937,144.42551)"
         id="text1047"
         style="font-size:10.5833px;line-height:1.25;white-space:pre;shape-inside:url(#rect1049)" />
    </g>
  </g>
</svg>
